<?xml version="1.0" encoding="UTF-8" standalone="no"?>
<!-- Created with Inkscape (http://www.inkscape.org/) -->

<svg
   width="67.733345mm"
   height="66.422333mm"
   viewBox="0 0 67.733345 66.422333"
   version="1.1"
   id="svg365"
   inkscape:version="1.2.1 (9c6d41e410, 2022-07-14)"
   sodipodi:docname="A1_light_aircraft.svg"
   xmlns:inkscape="http://www.inkscape.org/namespaces/inkscape"
   xmlns:sodipodi="http://sodipodi.sourceforge.net/DTD/sodipodi-0.dtd"
   xmlns="http://www.w3.org/2000/svg"
   xmlns:svg="http://www.w3.org/2000/svg">
  <sodipodi:namedview
     id="namedview367"
     pagecolor="#ffffff"
     bordercolor="#000000"
     borderopacity="0.25"
     inkscape:showpageshadow="2"
     inkscape:pageopacity="0.0"
     inkscape:pagecheckerboard="0"
     inkscape:deskcolor="#d1d1d1"
     inkscape:document-units="mm"
     showgrid="false"
     inkscape:zoom="2.587745"
     inkscape:cx="136.21899"
     inkscape:cy="126.55807"
     inkscape:window-width="1450"
     inkscape:window-height="1243"
     inkscape:window-x="1720"
     inkscape:window-y="367"
     inkscape:window-maximized="0"
     inkscape:current-layer="layer1" />
  <defs
     id="defs362" />
  <g
     inkscape:label="Layer 1"
     inkscape:groupmode="layer"
     id="layer1"
     transform="translate(-74.291018,-80.73043)">
    <path
       class="cls-2"
       d="m 140.81247,104.24366 -28.59376,-5.191114 0.19585,-3.557519 c 0.14285,-2.601313 -0.12903,-5.198028 -0.79953,-7.644967 -0.003,-0.01149 -0.007,-0.02534 -0.0115,-0.03684 -0.24884,-0.900898 -0.55067,-1.783361 -0.90551,-2.638184 -0.009,-0.02073 -0.0185,-0.04145 -0.0276,-0.06453 -0.11291,-0.267277 -0.22811,-0.532247 -0.35023,-0.79261 -0.0207,-0.04607 -0.0461,-0.08985 -0.0668,-0.135938 -0.1129,-0.235012 -0.2258,-0.470034 -0.34792,-0.698141 -0.023,-0.0438 -0.0484,-0.08755 -0.0738,-0.131331 l 6.43302,-0.191236 c 0.18433,-0.0044 0.32949,-0.165895 0.32949,-0.357139 0,-0.191236 -0.14516,-0.350216 -0.32949,-0.357131 l -6.82471,-0.202765 v 0.400916 c -0.0738,-0.126724 -0.15438,-0.25115 -0.23271,-0.375566 -0.0806,-0.131331 -0.15669,-0.262671 -0.23963,-0.391694 -0.1682,-0.260363 -0.34331,-0.516119 -0.52303,-0.764961 -0.0922,-0.129032 -0.18664,-0.255756 -0.2834,-0.38248 -0.0945,0.126724 -0.18894,0.253448 -0.2811,0.38248 -0.17972,0.251149 -0.35483,0.506897 -0.52303,0.764961 -0.0829,0.129023 -0.16129,0.260363 -0.23962,0.391694 -0.0784,0.124416 -0.15668,0.248842 -0.23272,0.375566 v -0.400916 l -6.82472,0.202765 c -0.184326,0.0044 -0.329485,0.165895 -0.329485,0.357131 0,0.191244 0.145159,0.350225 0.329485,0.357139 l 6.43302,0.191236 c -0.023,0.0438 -0.0484,0.08755 -0.0738,0.131331 -0.12212,0.235021 -0.23963,0.472342 -0.35483,0.71197 -0.0207,0.04145 -0.0414,0.08064 -0.0622,0.122109 -1.59212,3.393932 -2.311,7.278624 -2.09672,11.174846 l 0.19585,3.557509 -28.593762,5.191129 c -0.705056,0.12902 -1.21656,0.74191 -1.21656,1.45848 v 5.0114 c 0,0.71657 0.511504,1.32946 1.21656,1.45849 l 26.964772,4.9031 c 1.15435,0.20967 2.03451,1.14974 2.17045,2.31561 l 1.11518,9.6334 v 0 c 0,0 0.43548,7.86847 0.43548,7.86847 -0.1083,0.0599 -0.2235,0.1106 -0.34792,0.14286 l -9.508988,2.51607 c -0.672792,0.17741 -1.142826,0.78799 -1.142826,1.48383 v 3.8847 c 0,0.81103 0.631322,1.48383 1.442359,1.53222 l 11.520455,0.70275 11.52045,-0.70275 c 0.81104,-0.0484 1.44236,-0.72119 1.44236,-1.53222 v -3.8847 c 0,-0.69584 -0.47004,-1.30642 -1.14283,-1.48383 l -9.50898,-2.51607 c -0.12442,-0.0322 -0.23963,-0.0829 -0.34791,-0.14286 l 0.43547,-7.86847 1.11517,-9.6334 c 0.13595,-1.16587 1.0161,-2.10363 2.17046,-2.31561 l 26.96707,-4.9031 c 0.70506,-0.12903 1.21656,-0.74192 1.21656,-1.45849 v -5.0114 c 0,-0.71657 -0.5115,-1.32946 -1.21656,-1.45848 z"
       id="path190"
       style="fill:var(--marker-fill,black);stroke-width:1.5;stroke:var(--marker-stroke,black);stroke-opacity:1;stroke-dasharray:none" />
  </g>
</svg>
