<?xml version="1.0" encoding="UTF-8" standalone="no"?>
<!-- Created with Inkscape (http://www.inkscape.org/) -->

<svg
   width="67.733345mm"
   height="74.764633mm"
   viewBox="0 0 67.733346 74.764634"
   version="1.1"
   id="svg4748"
   inkscape:version="1.2.1 (9c6d41e410, 2022-07-14)"
   sodipodi:docname="A3_large_aircraft.svg"
   xmlns:inkscape="http://www.inkscape.org/namespaces/inkscape"
   xmlns:sodipodi="http://sodipodi.sourceforge.net/DTD/sodipodi-0.dtd"
   xmlns="http://www.w3.org/2000/svg"
   xmlns:svg="http://www.w3.org/2000/svg">
  <sodipodi:namedview
     id="namedview4750"
     pagecolor="#ffffff"
     bordercolor="#000000"
     borderopacity="0.25"
     inkscape:showpageshadow="2"
     inkscape:pageopacity="0.0"
     inkscape:pagecheckerboard="0"
     inkscape:deskcolor="#d1d1d1"
     inkscape:document-units="mm"
     showgrid="false"
     inkscape:zoom="2.5877449"
     inkscape:cx="150.51715"
     inkscape:cy="157.08658"
     inkscape:window-width="1450"
     inkscape:window-height="1243"
     inkscape:window-x="1392"
     inkscape:window-y="387"
     inkscape:window-maximized="0"
     inkscape:current-layer="layer1" />
  <defs
     id="defs4745" />
  <g
     inkscape:label="Layer 1"
     inkscape:groupmode="layer"
     id="layer1"
     transform="translate(-79.785978,-91.597237)">
    <path
       class="cls-2"
       d="m 130.87012,120.9353 h -0.1795 v -0.0133 c 0,-0.1374 -0.0864,-0.27479 -0.25484,-0.41219 l -0.26593,-0.21053 h -4.16395 l -0.26593,0.21053 c -0.17064,0.13518 -0.25484,0.27257 -0.25484,0.41219 v 0.0133 h -0.17951 v 0.38116 l -4.80218,-3.3972 v 0 c 0,0 -3.14456,-2.22492 -3.14456,-2.22492 v -12.14172 c 0,-2.13406 -0.33462,-4.257031 -0.9928,-6.286932 l -1.52907,-4.724615 c -0.1662,-0.514123 -0.64487,-0.862043 -1.18558,-0.862043 v 0 c -0.54072,0 -1.01939,0.34792 -1.18559,0.862043 l -1.52907,4.724615 c -0.65817,2.032116 -0.99279,4.152872 -0.99279,6.286932 v 12.14172 l -7.94675,5.62212 v -0.38116 h -0.1795 v -0.0133 c 0,-0.1374 -0.0864,-0.27479 -0.25485,-0.41219 l -0.26592,-0.21053 h -4.163957 l -0.265926,0.21053 c -0.170636,0.13518 -0.254846,0.27257 -0.254846,0.41219 v 0.0133 h -0.1795 v 4.29692 l -16.56496,11.6276 v 4.44983 l 19.940002,-7.90022 1.112457,-0.10858 v 0 l 9.02153,-0.87978 v 4.53405 c 0,0.18171 0.007,0.36342 0.007,0.54514 h -0.007 v 0.8975 h 0.0199 c 0.0399,1.93239 0.15734,3.86036 0.359,5.78389 l 0.0288,0.27922 -11.6121,8.97277 v 4.28363 l 12.87081,-1.23655 0.0864,0.82215 c 0.0909,0.86647 0.3324,1.71521 0.76675,2.47089 0.17507,0.30582 0.35013,0.54072 0.5252,0.71135 l 0.0487,1.6421 h 0.24597 l 0.12189,4.15287 h 0.50304 l 0.12188,-4.15287 h 0.24599 l 0.0487,-1.6421 c 0.0864,-0.0864 0.17507,-0.18614 0.2615,-0.30581 0,0 0,-0.003 0.003,-0.004 0.0421,-0.0576 0.082,-0.11523 0.12409,-0.1795 0.0443,-0.0665 0.0887,-0.13961 0.13075,-0.21496 0,0 0.003,-0.004 0.004,-0.007 0.43212,-0.75567 0.6759,-1.60441 0.76676,-2.47088 l 0.0864,-0.82216 12.87081,1.23655 v -4.28362 l -2.37117,-1.83267 -9.24091,-7.1401 0.0288,-0.27923 c 0.0354,-0.3457 0.0642,-0.69141 0.0953,-1.03933 v 0 c 0.14182,-1.57782 0.23046,-3.16008 0.26371,-4.74455 h 0.0178 v -0.89751 h -0.007 c 0,-0.18172 0.007,-0.36342 0.007,-0.54514 v -4.53404 l 3.14458,0.30582 v 0 l 5.87696,0.57396 1.11245,0.10858 19.94001,7.90021 v -4.44984 l -16.56507,-11.62761 v -4.29691 z"
       id="path154"
       style="fill:var(--marker-fill,black);stroke-width:1.5;stroke:var(--marker-stroke,black);stroke-opacity:1;stroke-dasharray:none" />
  </g>
</svg>
