<?xml version="1.0" encoding="UTF-8" standalone="no"?>
<!-- Created with Inkscape (http://www.inkscape.org/) -->

<svg
   width="67.73333mm"
   height="64.660286mm"
   viewBox="0 0 67.73333 64.660286"
   version="1.1"
   id="svg7204"
   inkscape:version="1.2.1 (9c6d41e410, 2022-07-14)"
   sodipodi:docname="A5_heavy_aircraft.svg"
   xmlns:inkscape="http://www.inkscape.org/namespaces/inkscape"
   xmlns:sodipodi="http://sodipodi.sourceforge.net/DTD/sodipodi-0.dtd"
   xmlns="http://www.w3.org/2000/svg"
   xmlns:svg="http://www.w3.org/2000/svg">
  <sodipodi:namedview
     id="namedview7206"
     pagecolor="#ffffff"
     bordercolor="#000000"
     borderopacity="0.25"
     inkscape:showpageshadow="2"
     inkscape:pageopacity="0.0"
     inkscape:pagecheckerboard="0"
     inkscape:deskcolor="#d1d1d1"
     inkscape:document-units="mm"
     showgrid="false"
     inkscape:zoom="2.587745"
     inkscape:cx="129.64956"
     inkscape:cy="142.78841"
     inkscape:window-width="1450"
     inkscape:window-height="1243"
     inkscape:window-x="1492"
     inkscape:window-y="294"
     inkscape:window-maximized="0"
     inkscape:current-layer="layer1" />
  <defs
     id="defs7201" />
  <g
     inkscape:label="Layer 1"
     inkscape:groupmode="layer"
     id="layer1"
     transform="translate(-70.820748,-100.69808)">
    <path
       class="cls-2"
       d="m 83.261556,136.67503 h 0.769307 l 0.06586,-0.33791 9.739635,-3.94005 h 6.945032 v 15.56683 c 0,0.24227 0.0638,0.64393 0.17639,1.14759 l -7.971494,6.02485 c -0.850063,0.64392 -1.534368,1.48123 -1.991275,2.44606 l -1.957275,4.12918 14.421364,-5.71243 c 0.20402,0.3634 0.40379,0.66518 0.59505,0.88832 l 0.0573,3.13249 c 0.0319,1.79363 0.22102,3.57877 0.56317,5.33841 v 0 c 0.34215,-1.75964 0.53129,-3.5469 0.56316,-5.34053 l 0.0573,-3.13249 c 0,0 0.0128,-0.0149 0.0191,-0.0213 0.0106,-0.0128 0.0234,-0.0276 0.034,-0.0404 0.034,-0.0425 0.068,-0.0871 0.10412,-0.13389 0.0128,-0.017 0.0255,-0.0361 0.0404,-0.0531 0.034,-0.0489 0.068,-0.0978 0.10413,-0.15089 0.0128,-0.0191 0.0255,-0.0404 0.0404,-0.0616 0.0362,-0.0553 0.0723,-0.11262 0.10839,-0.17213 0.0106,-0.017 0.0213,-0.0361 0.0319,-0.0531 0.0382,-0.0659 0.0786,-0.13176 0.11689,-0.20402 l 2.18679,0.86495 12.2367,4.84536 -1.95729,-4.12919 c -0.4569,-0.96482 -1.14121,-1.80213 -1.99127,-2.44606 l -2.53107,-1.91265 v 0 l -5.44042,-4.1122 c 0.0276,-0.12113 0.051,-0.23589 0.0723,-0.34427 0.002,-0.0149 0.006,-0.0297 0.009,-0.0468 0.017,-0.085 0.0297,-0.16576 0.0425,-0.24227 0.004,-0.0255 0.009,-0.051 0.0106,-0.0765 0.009,-0.0638 0.017,-0.12326 0.0234,-0.18064 0.002,-0.0213 0.004,-0.0447 0.006,-0.0659 0.006,-0.0723 0.0106,-0.13813 0.0106,-0.19339 v -15.56683 h 6.95777 l 9.73964,3.94006 0.0659,0.3379 h 0.76931 l 11.66077,4.71787 0.78844,1.7235 v -1.7235 l -0.78844,-3.97406 -9.46122,-6.60926 c 0.006,-0.1509 0.0106,-0.29966 0.0106,-0.45054 v -3.67867 h -0.14664 v -0.0106 c 0,-0.11263 -0.0701,-0.22527 -0.20827,-0.33577 l -0.21676,-0.17214 h -3.40664 l -0.21677,0.17214 c -0.13814,0.1105 -0.20827,0.22314 -0.20827,0.33577 v 0.0106 h -0.14663 v 0.95633 l -3.43427,-2.39931 v -3.80192 h -0.16364 v -0.0128 c 0,-0.12538 -0.0786,-0.25077 -0.23164,-0.37403 l -0.24014,-0.19126 h -3.78281 l -0.24014,0.19126 c -0.15513,0.12326 -0.23164,0.24865 -0.23164,0.37403 v 0.0128 h -0.16364 v 0.26991 l -3.25361,-2.27394 -3.44915,-2.40993 v -9.15522 c 0,-3.20899 -2.05079,-5.72093 -3.17499,-6.86002 -0.39529,-0.39953 -1.04134,-0.39953 -1.43662,0 -1.12421,1.13696 -3.175,3.65103 -3.175,6.86002 v 9.16584 l -6.690021,4.67325 v -0.26991 h -0.163631 v -0.0128 c 0,-0.12538 -0.07863,-0.25077 -0.231646,-0.37403 l -0.240145,-0.19126 h -3.78279 l -0.240144,0.19126 c -0.155141,0.12326 -0.231647,0.24865 -0.231647,0.37403 v 0.0128 h -0.163638 v 3.80192 l -3.434261,2.39931 v -0.95633 h -0.146642 v -0.0106 c 0,-0.11263 -0.07012,-0.22527 -0.208264,-0.33577 l -0.216763,-0.17214 h -3.406639 l -0.21677,0.17214 c -0.138137,0.1105 -0.208265,0.22314 -0.208265,0.33577 v 0.0106 h -0.146661 v 3.67867 c 0,0.15088 0.004,0.29964 0.0106,0.45054 l -9.461233,6.60926 -0.788442,3.97406 v 1.7235 l 0.788442,-1.7235 11.660772,-4.71787 z"
       id="path152"
       style="fill:var(--marker-fill,black);stroke-width:1.5;stroke:var(--marker-stroke,black);stroke-opacity:1;stroke-dasharray:none" />
  </g>
</svg>
