<?xml version="1.0" encoding="UTF-8" standalone="no"?>
<!-- Created with Inkscape (http://www.inkscape.org/) -->

<svg
   width="67.73333mm"
   height="66.074234mm"
   viewBox="0 0 67.73333 66.074234"
   version="1.1"
   id="svg8444"
   inkscape:version="1.2.1 (9c6d41e410, 2022-07-14)"
   sodipodi:docname="A6_highperformance_aircraft.svg"
   xmlns:inkscape="http://www.inkscape.org/namespaces/inkscape"
   xmlns:sodipodi="http://sodipodi.sourceforge.net/DTD/sodipodi-0.dtd"
   xmlns="http://www.w3.org/2000/svg"
   xmlns:svg="http://www.w3.org/2000/svg">
  <sodipodi:namedview
     id="namedview8446"
     pagecolor="#ffffff"
     bordercolor="#000000"
     borderopacity="0.25"
     inkscape:showpageshadow="2"
     inkscape:pageopacity="0.0"
     inkscape:pagecheckerboard="0"
     inkscape:deskcolor="#d1d1d1"
     inkscape:document-units="mm"
     showgrid="false"
     inkscape:zoom="2.587745"
     inkscape:cx="104.53117"
     inkscape:cy="129.26312"
     inkscape:window-width="1450"
     inkscape:window-height="1243"
     inkscape:window-x="1630"
     inkscape:window-y="316"
     inkscape:window-maximized="0"
     inkscape:current-layer="layer1" />
  <defs
     id="defs8441" />
  <g
     inkscape:label="Layer 1"
     inkscape:groupmode="layer"
     id="layer1"
     transform="translate(-75.158679,-97.099406)">
    <path
       class="cls-2"
       d="m 79.05476,139.49398 v 0 c 0.167787,-0.43363 0.265842,-0.8738 0.296347,-1.31614 l 3.085526,-0.84329 c 0.04143,0.38569 0.135107,0.7692 0.283277,1.14835 0.167787,-0.43144 0.263667,-0.86726 0.296355,-1.30524 l 3.0877,-0.84329 c 0.04357,0.38133 0.135099,0.76266 0.281094,1.13746 0.165614,-0.4271 0.261486,-0.86072 0.294174,-1.29435 l 3.087709,-0.8433 c 0.04357,0.37916 0.137281,0.75396 0.281094,1.12657 v 0 c 0.165604,-0.42273 0.259303,-0.852 0.294173,-1.28347 l 3.089882,-0.84328 c 0.04357,0.37479 0.137282,0.74741 0.281095,1.11568 v 0 c 0.163431,-0.42056 0.259312,-0.84548 0.291991,-1.27257 l 0.980574,-0.26802 0.342105,-0.0632 h 10.001824 v 6.12093 c 0,0.84983 0.0152,1.69965 0.0414,2.5473 h -0.47938 v -3.29253 h -0.17651 v -0.0131 c 0,-0.1351 -0.0828,-0.26803 -0.24841,-0.40094 l -0.2593,-0.20702 h -4.06393 l -0.259307,0.20702 c -0.165605,0.13291 -0.248407,0.26584 -0.248407,0.40094 v 0.0131 H 99.46151 v 4.38641 c 0,0.93263 0.08934,1.86309 0.265842,2.77829 l 0.276738,1.42946 h 0.36608 c 0.0305,0.32685 0.0763,0.65371 0.13728,0.9762 l 0.1874,0.97404 h 0.44235 c 0.0131,0.27455 0.0392,0.55129 0.0915,0.82149 l 0.10678,0.5513 h 1.68004 l 0.10677,-0.5513 c 0.0523,-0.2702 0.0785,-0.54694 0.0915,-0.82149 h 0.44234 l 0.18741,-0.97404 c 0.0632,-0.32249 0.10895,-0.64935 0.13728,-0.9762 h 0.36608 l 0.0196,-0.10678 1.45124,1.45124 c 0.14817,1.38369 0.32685,2.76521 0.5404,4.14018 l -8.953699,4.8985 c -0.610129,0.33339 -0.991461,0.97403 -0.991461,1.67132 v 3.30343 l 11.54022,-2.0069 c 0.0196,0.0763 0.0371,0.15253 0.0567,0.2288 h 0.30507 l 0.35736,1.40548 c 0.0937,0.37044 0.61885,0.37044 0.71254,0 l 0.35737,-1.40548 h 0.30507 c 0.0196,-0.0763 0.0371,-0.15253 0.0567,-0.2288 l 11.54021,2.0069 v -3.30343 c 0,-0.69512 -0.37915,-1.33575 -0.99146,-1.67132 l -8.95369,-4.8985 c 0,0 0,-0.002 0,-0.004 0.0959,-0.61666 0.18304,-1.23551 0.26584,-1.85654 0,0 0,0 0,0 v 0 c 0.10024,-0.75831 0.19175,-1.51879 0.27238,-2.27928 l 1.45125,-1.45124 0.0196,0.10678 h 0.36608 c 0.0305,0.32685 0.0763,0.65371 0.13945,0.9762 l 0.18741,0.97404 h 0.44235 c 0.0131,0.27455 0.0392,0.55129 0.0915,0.8215 l 0.10677,0.55129 h 1.68005 l 0.10676,-0.55129 c 0.0523,-0.27021 0.0785,-0.54695 0.0915,-0.8215 h 0.44234 l 0.1874,-0.97404 c 0.0632,-0.32249 0.10895,-0.64935 0.13946,-0.9762 h 0.36608 l 0.27674,-1.42946 c 0.1765,-0.91521 0.26584,-1.84566 0.26584,-2.77829 v -4.38641 h -0.17433 v -0.0131 c 0,-0.1351 -0.0828,-0.26803 -0.2484,-0.40094 l -0.25932,-0.20702 h -4.06392 l -0.2593,0.20702 c -0.16561,0.13291 -0.24842,0.26584 -0.24842,0.40094 v 0.0131 h -0.17431 v 3.29253 h -0.4794 c 0.024,-0.84982 0.0414,-1.69747 0.0414,-2.54729 v -6.12094 h 2.74124 c 0,0 7.25839,0 7.25839,0 l 0.34211,0.0632 0.97404,0.26584 c 0.0348,0.42709 0.12856,0.85418 0.29199,1.27474 v 0 c 0.14381,-0.36826 0.23751,-0.74306 0.28109,-1.11785 l 3.08989,0.84329 c 0.0327,0.43146 0.12857,0.86073 0.29417,1.28564 v 0 c 0.14382,-0.37262 0.23752,-0.74959 0.2811,-1.12875 l 3.0877,0.8433 c 0.0327,0.4358 0.12856,0.86726 0.29418,1.29653 0.14599,-0.3748 0.23969,-0.75613 0.28109,-1.13746 l 3.0877,0.84329 c 0.0327,0.43798 0.12857,0.87597 0.29635,1.30742 v 0 c 0.14818,-0.37915 0.23971,-0.76266 0.28329,-1.14835 l 3.08552,0.84328 c 0.0305,0.44235 0.12638,0.88252 0.29635,1.31833 v 0 c 0.14818,-0.38351 0.24188,-0.76921 0.28328,-1.15925 l 3.61066,0.9871 v -3.38187 c 0,-1.02634 -0.50117,-1.9655 -1.29652,-2.42746 l -26.12673,-15.20101 v 0 l -2.74125,-1.59506 v -9.71636 c 0,-2.23133 -0.52079,-4.43217 -1.52314,-6.426 l -1.55149,-3.092061 c -0.2593,-0.516431 -0.99581,-0.516431 -1.25512,0 l -1.55148,3.092061 c -1.00018,1.99383 -1.52315,4.19467 -1.52315,6.426 v 9.71636 L 76.455209,133.5171 c -0.795352,0.46196 -1.29653,1.40112 -1.29653,2.42746 v 3.38187 l 3.608496,-0.98493 c 0.04143,0.38787 0.135099,0.77574 0.283278,1.15708 z"
       id="path158"
       style="fill:var(--marker-fill,black);stroke-width:1.5;stroke:var(--marker-stroke,black);stroke-opacity:1;stroke-dasharray:none" />
  </g>
</svg>
