<?xml version="1.0" encoding="UTF-8" standalone="no"?>
<!-- Created with Inkscape (http://www.inkscape.org/) -->

<svg
   width="67.73333mm"
   height="93.306358mm"
   viewBox="0 0 67.73333 93.306358"
   version="1.1"
   id="svg9939"
   inkscape:version="1.2.1 (9c6d41e410, 2022-07-14)"
   sodipodi:docname="A7_rotorcraft_aircraft.svg"
   xmlns:inkscape="http://www.inkscape.org/namespaces/inkscape"
   xmlns:sodipodi="http://sodipodi.sourceforge.net/DTD/sodipodi-0.dtd"
   xmlns="http://www.w3.org/2000/svg"
   xmlns:svg="http://www.w3.org/2000/svg">
  <sodipodi:namedview
     id="namedview9941"
     pagecolor="#ffffff"
     bordercolor="#000000"
     borderopacity="0.25"
     inkscape:showpageshadow="2"
     inkscape:pageopacity="0.0"
     inkscape:pagecheckerboard="0"
     inkscape:deskcolor="#d1d1d1"
     inkscape:document-units="mm"
     showgrid="false"
     inkscape:zoom="2.587745"
     inkscape:cx="131.96818"
     inkscape:cy="174.0898"
     inkscape:window-width="1450"
     inkscape:window-height="1243"
     inkscape:window-x="1391"
     inkscape:window-y="298"
     inkscape:window-maximized="0"
     inkscape:current-layer="layer1" />
  <defs
     id="defs9936" />
  <g
     inkscape:label="Layer 1"
     inkscape:groupmode="layer"
     id="layer1"
     transform="translate(-60.120669,-82.615571)">
    <path
       class="cls-2"
       d="m 127.854,83.653044 -0.38597,-0.388437 -0.2606,-0.2606 -0.38844,-0.388436 c -8.65136,7.790899 -16.63893,15.505576 -23.8103,23.124379 v -1.61521 c 0,-0.24094 -0.17209,-0.43516 -0.38352,-0.43516 -0.21142,0 -0.38352,0.19422 -0.38352,0.43516 v 1.3792 l -0.93176,0.32205 v -2.85674 c 0,-1.8291 -0.35402,-3.640988 -1.04485,-5.334875 v 0 c -0.565446,-1.38904 -1.575878,-2.551898 -2.873951,-3.304185 -2.104448,-1.221861 -4.703056,-1.221861 -6.807504,0 -1.298073,0.752287 -2.308507,1.915145 -2.873954,3.304185 v 0 C 87.0188,99.328262 86.66478,101.14015 86.66478,102.96925 v 2.85674 l -0.93176,-0.32205 v -1.3792 c 0,-0.24094 -0.172094,-0.43516 -0.383521,-0.43516 -0.211427,0 -0.383522,0.19422 -0.383522,0.43516 v 1.61521 C 77.794622,98.121147 69.809505,90.40647 61.155689,82.615571 l -0.388446,0.388436 -0.26059,0.2606 -0.385984,0.388437 c 8.37847,9.302861 16.665972,17.838666 24.845308,25.415676 v 14.83196 c -8.179336,7.57701 -16.466838,16.11281 -24.845308,25.41568 l 0.385984,0.38597 0.26059,0.2606 0.388446,0.38844 c 9.413481,-8.47681 18.040257,-16.86266 25.683648,-25.13541 0,0.0148 0.0046,0.0295 0.0074,0.0418 0.04674,0.28026 0.09834,0.55807 0.164716,0.83588 0.07619,0.32453 0.167179,0.64658 0.267978,0.96618 0.346642,1.08419 0.838339,2.11428 1.452958,3.06571 0.29747,0.45974 0.619535,0.90472 0.973555,1.32512 l 2.537142,3.01409 0.22372,13.22657 -10.055148,0.67116 c -0.403193,0.027 -0.715418,0.3614 -0.715418,0.76459 v 2.06512 c 0,0.40318 0.312225,0.73999 0.715418,0.76458 l 10.138738,0.67854 0.0787,4.65634 0.05659,3.42711 0.07127,4.21382 H 91.89403 c -0.277808,0 -0.501528,0.22372 -0.501528,0.50153 v 4.35887 c 0,0.2778 0.22372,0.50152 0.501528,0.50152 h 0.953884 l 0.08112,4.8309 c 0.0074,0.44252 0.366304,0.79654 0.808828,0.79654 h 0.499075 c 0.442525,0 0.80146,-0.35402 0.808838,-0.79654 l 0.01719,-0.9711 h 0.339264 c 0.277809,0 0.501529,-0.22372 0.501529,-0.50152 v -12.07356 c 0,-0.27781 -0.22372,-0.50153 -0.501529,-0.50153 H 95.2818 l 0.0046,-0.35647 0.059,-3.42711 0.0787,-4.65634 10.13873,-0.67854 c 0.40319,-0.027 0.71542,-0.3614 0.71542,-0.76459 v -2.06512 c 0,-0.40318 -0.31223,-0.73999 -0.71542,-0.76458 l -8.990628,-0.59986 -1.064522,-0.0713 0.22372,-13.22658 2.537143,-3.01408 c 0.135224,-0.16226 0.267977,-0.32698 0.395814,-0.49415 0.127847,-0.16718 0.250769,-0.33682 0.371229,-0.51137 0.594956,-0.86538 1.084194,-1.80206 1.452954,-2.7879 0.0738,-0.19669 0.1426,-0.39582 0.20652,-0.59742 0.118,-0.37122 0.21635,-0.74737 0.29993,-1.12597 0.0172,-0.0762 0.0296,-0.15489 0.0442,-0.2311 0,0 0.003,0.003 0.005,0.005 0.0172,-0.0884 0.0295,-0.17454 0.0467,-0.26305 0.0148,-0.0762 0.032,-0.15242 0.0442,-0.22863 7.64584,8.27275 16.27016,16.65859 25.68365,25.13541 l 0.38843,-0.38844 0.2606,-0.2606 0.38598,-0.38598 c -8.37847,-9.30286 -16.66597,-17.83867 -24.84531,-25.41567 v -14.83197 c 8.17934,-7.57701 16.46684,-16.112815 24.84531,-25.415667 z M 86.662327,113.28254 v 9.05946 c -0.309772,0.28273 -0.619535,0.56791 -0.93176,0.8531 v -13.41834 c 0.309763,0.28518 0.619535,0.57036 0.93176,0.85309 v 2.65023 z m 0,-6.67966 v 0.96126 c -0.30731,-0.3319 -0.619535,-0.66379 -0.93176,-0.99814 v -0.45974 l 0.93176,0.32206 v 0.17209 z m 15.576873,16.58976 c -0.30977,-0.28519 -0.61954,-0.57037 -0.93177,-0.85309 v -11.7097 c 0.30977,-0.28273 0.61953,-0.56791 0.93177,-0.85309 v 13.41834 z m 0,-16.62664 c -0.30977,0.33189 -0.62446,0.66378 -0.93177,0.99814 v -1.13336 l 0.93177,-0.32206 v 0.45973 z"
       id="path176"
       style="fill:var(--marker-fill,black);stroke-width:1.5;stroke:var(--marker-stroke,black);stroke-opacity:1;stroke-dasharray:none" />
  </g>
</svg>
