<?xml version="1.0" encoding="UTF-8" standalone="no"?>
<!-- Created with Inkscape (http://www.inkscape.org/) -->

<svg
   width="67.73333mm"
   height="100.45699mm"
   viewBox="0 0 67.73333 100.45699"
   version="1.1"
   id="svg4684"
   inkscape:version="1.2.1 (9c6d41e410, 2022-07-14)"
   sodipodi:docname="B2_balloon.svg"
   xmlns:inkscape="http://www.inkscape.org/namespaces/inkscape"
   xmlns:sodipodi="http://sodipodi.sourceforge.net/DTD/sodipodi-0.dtd"
   xmlns="http://www.w3.org/2000/svg"
   xmlns:svg="http://www.w3.org/2000/svg">
  <sodipodi:namedview
     id="namedview4686"
     pagecolor="#ffffff"
     bordercolor="#000000"
     borderopacity="0.25"
     inkscape:showpageshadow="2"
     inkscape:pageopacity="0.0"
     inkscape:pagecheckerboard="0"
     inkscape:deskcolor="#d1d1d1"
     inkscape:document-units="mm"
     showgrid="false"
     inkscape:zoom="0.914906"
     inkscape:cx="279.26366"
     inkscape:cy="407.14565"
     inkscape:window-width="1450"
     inkscape:window-height="1243"
     inkscape:window-x="2471"
     inkscape:window-y="371"
     inkscape:window-maximized="0"
     inkscape:current-layer="layer1" />
  <defs
     id="defs4681" />
  <g
     inkscape:label="Layer 1"
     inkscape:groupmode="layer"
     id="layer1"
     transform="translate(-30.333914,-41.156127)">
    <path
       class="st0"
       d="m 59.038401,130.02768 c 0.08299,0 0.132784,-0.083 0.116186,-0.14938 0,0 0,-0.0166 0,-0.0332 l -6.788596,-17.56073 c -0.06639,-0.16598 -0.16598,-0.31536 -0.282166,-0.43155 C 45.444611,105.3464 39.20375,98.557805 34.855065,90.690338 28.663998,79.453469 28.630802,65.992463 36.00033,55.270133 43.037896,45.012548 54.971883,40.381697 67.271026,41.261393 c 13.394613,0.962686 24.482101,8.979536 28.996768,21.69363 6.821786,19.270317 -7.03757,36.2999 -20.03383,48.814817 -0.199176,0.18258 -0.348559,0.41495 -0.448147,0.66392 l -6.854988,17.39474 c -0.0332,0.0664 0,0.14939 0.06639,0.16598 0,0 0.0166,0 0.0332,0 l 0.8465,0.13279 c 0.265569,0.0498 0.481343,0.28216 0.481343,0.54773 0.0166,3.98353 0.0166,7.31973 0,9.99202 0,0.69711 -0.614127,0.94609 -1.261451,0.94609 -2.307126,0 -5.859106,0 -10.705732,-0.0498 -0.547735,0 -0.813303,-0.33196 -0.829901,-0.99588 -0.0332,-3.07064 -0.0166,-6.35705 0,-9.87583 0,-0.29877 0.215774,-0.53114 0.514539,-0.58094 l 0.962686,-0.11618 z m -5.410959,-16.41546 6.390243,16.23288 c 0.06639,0.16598 0.265568,0.24897 0.431548,0.18258 0.06639,-0.0166 0.116187,-0.0664 0.149383,-0.11619 0,0 0.0332,-0.0166 0.09959,-0.0498 0,0 0.0166,-0.0166 0.0166,-0.0332 l 0.0498,-5.89231 c 0,-0.11618 -0.06639,-0.21577 -0.165981,-0.26556 -0.381754,-0.19918 -0.614127,-0.34857 -0.680518,-0.48135 -1.161863,-2.42331 -2.240735,-4.68064 -3.236617,-6.75539 -0.0498,-0.0996 -0.116186,-0.19918 -0.199177,-0.28218 l -2.655685,-2.65568 c -0.04979,-0.0498 -0.132784,-0.0498 -0.165981,0 -0.0332,0.0332 -0.04979,0.083 -0.0332,0.13279 z m 20.797336,0.083 c -1.543617,1.27805 -2.572695,2.42332 -3.070636,3.4192 -0.298765,0.61413 -1.294647,2.63908 -2.95445,6.05828 -0.06639,0.11619 -0.149382,0.21578 -0.265568,0.26557 -0.116187,0.0664 -0.331961,0.13278 -0.68052,0.18258 -0.09959,0 -0.16598,0.0996 -0.16598,0.19917 v 5.80932 c -0.0332,0.24897 0.16598,0.44815 0.414951,0.46474 0.199176,0 0.365156,-0.11618 0.431549,-0.29877 l 6.340449,-16.06689 c 0,-0.0166 0,-0.0332 -0.0166,-0.0332 0,0 0,0 -0.0166,0 z m -7.917262,10.1248 c 0,-0.0664 -0.04979,-0.11618 -0.116186,-0.11618 l -4.81343,0.0332 c -0.06639,0 -0.116186,0.0498 -0.116186,0.11618 l 0.0332,6.00849 c 0,0.0664 0.0498,0.11619 0.116187,0.11619 l 4.813429,-0.0332 c 0.06639,0 0.116187,-0.0498 0.116187,-0.11619 z"
       id="path4404"
       style="fill:var(--marker-fill,black);stroke-width:1.5;stroke:var(--marker-stroke,black);stroke-opacity:1;stroke-dasharray:none" />
  </g>
</svg>
