<?xml version="1.0" encoding="UTF-8" standalone="no"?>
<!-- Created with Inkscape (http://www.inkscape.org/) -->

<svg
   width="67.733337mm"
   height="78.138412mm"
   viewBox="0 0 67.733337 78.138412"
   version="1.1"
   id="svg318"
   inkscape:version="1.2.1 (9c6d41e410, 2022-07-14)"
   sodipodi:docname="B3_skydiver.svg"
   xmlns:inkscape="http://www.inkscape.org/namespaces/inkscape"
   xmlns:sodipodi="http://sodipodi.sourceforge.net/DTD/sodipodi-0.dtd"
   xmlns="http://www.w3.org/2000/svg"
   xmlns:svg="http://www.w3.org/2000/svg">
  <sodipodi:namedview
     id="namedview320"
     pagecolor="#ffffff"
     bordercolor="#000000"
     borderopacity="0.25"
     inkscape:showpageshadow="2"
     inkscape:pageopacity="0.0"
     inkscape:pagecheckerboard="0"
     inkscape:deskcolor="#d1d1d1"
     inkscape:document-units="mm"
     showgrid="false"
     inkscape:zoom="0.914906"
     inkscape:cx="106.56832"
     inkscape:cy="147.00964"
     inkscape:window-width="1450"
     inkscape:window-height="1243"
     inkscape:window-x="1685"
     inkscape:window-y="473"
     inkscape:window-maximized="0"
     inkscape:current-layer="layer1" />
  <defs
     id="defs315" />
  <g
     inkscape:label="Layer 1"
     inkscape:groupmode="layer"
     id="layer1"
     transform="translate(-76.026152,-109.86457)">
    <path
       d="m 114.52027,172.22076 0.9613,2.84596 c 0.0211,0.0675 0.0928,0.11384 0.16444,0.10541 0.32043,-0.0337 1.60217,-0.11806 3.84521,-0.25719 2.01537,-0.12227 2.87127,0.96552 3.54587,2.63094 0.72519,1.79612 1.51785,3.79462 2.37796,6.00394 0.21925,0.56076 0.26563,1.29017 0.13914,2.19245 -0.16022,1.15946 -1.27752,2.04066 -2.46229,2.21774 -1.11309,0.16444 -2.05331,-0.14335 -2.81645,-0.91914 -0.35417,-0.3626 -0.72941,-1.10044 -1.12153,-2.22618 -0.46378,-1.32812 -0.82638,-2.54661 -1.38714,-3.41516 -0.13071,-0.19816 -0.35417,-0.32044 -0.59449,-0.32044 -0.24033,0 -0.51438,0.0127 -0.65352,0.0337 -1.60639,0.25719 -3.00197,0.4427 -4.19095,0.54811 -2.94294,0.26984 -4.33431,-1.50099 -5.12696,-4.01809 -0.059,-0.19394 -0.34152,-0.9866 -0.84325,-2.39061 -0.0211,-0.0632 -0.097,-0.0885 -0.156,-0.0506 -0.28249,0.18974 -0.61557,0.45957 -0.95287,0.56076 -1.54315,0.45958 -3.17906,-0.17708 -3.60068,-1.74974 -0.32887,-1.21849 0.16022,-2.09126 0.79265,-3.1664 0.37103,-0.63244 0.8306,-1.36606 1.3745,-2.18402 0.059,-0.0927 0.0506,-0.21081 -0.0169,-0.29092 -2.06175,-2.42856 -3.807282,-4.51138 -5.232372,-6.24848 -4.78544,-5.8395 -9.71424,-11.90669 -14.77795,-18.21419 -0.37525,-0.46379 -0.76314,-0.95288 -1.1679,-1.45461 -0.10541,-0.1307 -0.26141,-0.21081 -0.43428,-0.21925 -2.26412,-0.0801 -4.73906,-1.00346 -5.7088,-3.23807 -1.13417,-2.60986 0.0759,-6.03767 1.3745,-8.59694 4.34274,-8.58006 12.18918,-14.39849 21.00957,-17.75462 6.429782,-2.44121 13.163132,-3.27603 20.204262,-2.50023 6.24005,0.69146 12.9481,3.03991 17.59863,7.18027 3.47418,3.09051 6.11356,7.22243 6.92308,11.79706 0.83903,4.73906 -1.40823,9.12396 -6.20632,10.41835 -0.22768,0.059 -0.42584,0.2066 -0.55233,0.40476 -4.3849,6.75022 -8.21325,12.87643 -12.6108,19.52123 -2.84597,4.29636 -5.26188,8.08677 -7.24773,11.35858 -0.59871,0.98238 -1.38715,1.40823 -2.36532,1.28595 -0.059,-0.008 -0.10962,0.0506 -0.0885,0.10541 m -4.90771,-6.10934 c 0.11805,-0.0127 0.13913,-0.1813 0.0253,-0.22347 -1.43775,-0.55232 -2.33581,-1.53471 -2.68997,-2.95559 -0.53547,-2.14185 0.69568,-4.31322 2.77851,-4.97939 2.50023,-0.80108 5.08901,0.94023 5.33355,3.55009 0.1307,1.41665 -0.35416,2.60564 -1.46725,3.56273 -0.12228,0.10119 -0.4933,0.35416 -1.12574,0.75471 -0.0548,0.0337 -0.0801,0.10118 -0.0675,0.16021 0.12227,0.58184 0.42584,1.04142 0.90649,1.37872 0.78422,0.55654 1.31125,0.91914 1.57688,1.09622 0.0632,0.0379 0.14335,0.004 0.16022,-0.0632 3.34348,-14.06119 5.85636,-24.44582 7.53443,-31.15808 0.46379,-1.85094 0.90228,-3.91268 1.31547,-6.18102 0.0295,-0.14757 -0.0422,-0.29514 -0.16865,-0.37525 -5.77204,-3.54586 -12.83426,-4.34695 -19.22609,-2.04488 -3.96749,1.42931 -7.875962,3.98435 -11.312202,6.67011 -0.0759,0.0632 -0.10119,0.16864 -0.059,0.25719 4.8782,9.95034 9.410672,20.22113 13.601622,30.80391 0.0253,0.0632 0.0928,0.10119 0.16022,0.0928 l 2.71948,-0.34995 m 8.39877,-1.14682 c -0.008,0.0422 0.0464,0.0632 0.0717,0.0295 1.85515,-2.88391 5.17756,-8.00665 9.96722,-15.37666 2.14185,-3.29289 4.5409,-7.26459 6.52675,-10.31716 0.0295,-0.0464 0.0127,-0.1054 -0.0379,-0.12648 -0.73784,-0.3373 -1.46303,-0.80952 -2.17558,-1.40823 -1.99429,-1.68229 -4.0223,-3.80727 -6.23162,-5.4474 -0.0717,-0.0506 -0.16865,-0.0126 -0.18551,0.0717 -0.3626,1.80456 -0.78844,3.70187 -1.28174,5.6835 -1.88888,7.60612 -3.79462,15.2291 -5.71723,22.86894 -0.34995,1.39558 -0.66196,2.73634 -0.94023,4.0223 m -14.02746,0.26141 c 0,0 0,-0.008 0,-0.0211 0,-0.004 0,-0.0169 -0.008,-0.0337 -4.081332,-9.72689 -8.145792,-19.11648 -12.703562,-28.16876 -0.0295,-0.059 -0.1054,-0.0759 -0.156,-0.0295 -1.26909,1.11731 -2.50867,2.15451 -3.72716,3.11581 -0.8306,0.65352 -1.63591,1.18477 -2.41591,1.58531 -0.0632,0.0337 -0.0843,0.11806 -0.0337,0.17287 l 18.960472,23.40439 c 0.0253,0.0337 0.0801,0.0169 0.0843,-0.0253 z"
       id="path10"
       style="fill:var(--marker-fill,black);stroke-width:1.5;stroke:var(--marker-stroke,black);stroke-opacity:1;stroke-dasharray:none" />
  </g>
</svg>
