<?xml version="1.0" encoding="UTF-8" standalone="no"?>
<svg
   width="257.81689"
   height="168.15276"
   viewBox="0 0 257.81689 168.15276"
   fill="none"
   version="1.1"
   id="svg8"
   sodipodi:docname="B6_uav.svg"
   inkscape:version="1.2.1 (9c6d41e410, 2022-07-14)"
   xmlns:inkscape="http://www.inkscape.org/namespaces/inkscape"
   xmlns:sodipodi="http://sodipodi.sourceforge.net/DTD/sodipodi-0.dtd"
   xmlns="http://www.w3.org/2000/svg"
   xmlns:svg="http://www.w3.org/2000/svg">
  <defs
     id="defs12" />
  <sodipodi:namedview
     id="namedview10"
     pagecolor="#ffffff"
     bordercolor="#000000"
     borderopacity="0.25"
     inkscape:showpageshadow="2"
     inkscape:pageopacity="0.0"
     inkscape:pagecheckerboard="0"
     inkscape:deskcolor="#d1d1d1"
     showgrid="false"
     inkscape:zoom="2.451074"
     inkscape:cx="126.27118"
     inkscape:cy="85.472736"
     inkscape:window-width="1450"
     inkscape:window-height="1243"
     inkscape:window-x="1977"
     inkscape:window-y="123"
     inkscape:window-maximized="0"
     inkscape:current-layer="svg8" />
  <path
     d="m 128.91769,167.19887 c -7.75436,0 -16.61235,0.003 -26.57307,0.009 -3.433676,0 -5.646546,-0.21757 -6.638626,-0.65084 -3.52665,-1.53786 -5.93478,-3.77862 -7.22438,-6.7223 -0.67595,-1.55645 -0.99208,-4.82555 -0.94838,-9.80916 0.0865,-10.40794 0.0809,-19.3738 -0.0186,-26.89849 -0.0558,-3.98596 0.38121,-6.86177 1.31099,-8.62835 1.85305,-3.52758 4.92132,-5.72185 9.20481,-6.58283 0.0744,-0.0121 0.14597,-0.0186 0.21385,-0.0186 l 18.632766,-0.0465 c 0.0595,0 0.11901,-0.0121 0.1748,-0.0353 0.0548,-0.0223 0.10506,-0.0558 0.14783,-0.0986 0.0418,-0.0418 0.0753,-0.0921 0.0986,-0.14783 0.0223,-0.0549 0.0344,-0.11437 0.0344,-0.17387 V 95.242987 c 9.3e-4,-0.0725 -0.0139,-0.14412 -0.0437,-0.21013 -0.0288,-0.0651 -0.0716,-0.1246 -0.12552,-0.17294 -0.053,-0.0483 -0.11622,-0.0846 -0.18502,-0.10693 -0.0688,-0.0223 -0.14133,-0.0297 -0.21292,-0.0214 -4.79766,0.51138 -9.24201,0.31612 -8.15417,-6.06215 0.0214,-0.1218 0.0167,-0.24732 -0.0149,-0.36634 -0.0316,-0.11994 -0.0883,-0.23151 -0.16736,-0.32635 -0.0781,-0.0958 -0.17666,-0.17294 -0.28823,-0.22686 -0.11158,-0.0539 -0.23338,-0.0828 -0.35704,-0.0846 -6.11794,-0.13017 -11.594336,-1.85956 -14.244206,-7.82874 -0.0418,-0.0939 -0.10414,-0.17666 -0.1841,-0.24175 -0.079,-0.0651 -0.17294,-0.11157 -0.27336,-0.13481 -0.10041,-0.0232 -0.20548,-0.0232 -0.30682,0 -0.10135,0.0232 -0.19619,0.0697 -0.27708,0.13481 -17.36175,14.03315 -26.99797,32.352583 -28.90681,54.959213 -0.20455,2.42952 -0.35982,5.34251 -0.46489,8.73993 -0.0121,0.37377 -0.10041,0.73824 -0.26033,1.06924 -2.27796,4.87203 -8.49818,6.35968 -11.84539,1.76657 -0.71314,-0.97998 -1.03855,-2.73075 -0.97626,-5.25324 0.70662,-28.86963 13.37951,-56.251603 37.3213,-73.015513 0.0474,-0.0335 0.0865,-0.0762 0.1153,-0.12645 0.0288,-0.0502 0.0465,-0.10599 0.0521,-0.16271 0.005,-0.0576 -0.002,-0.11529 -0.0214,-0.17015 -0.0195,-0.0539 -0.0502,-0.10413 -0.0902,-0.14504 -1.59271,-1.59922 -3.52106,-2.71217 -5.78322,-3.33791 -5.88829,-1.63641 -12.50831,-3.22354 -19.86007,-4.76047 -0.079,-0.0167 -0.15992,-0.0177 -0.23895,-0.002 -0.079,0.0149 -0.15434,0.0456 -0.22129,0.0893 -0.0669,0.0446 -0.12366,0.10135 -0.16736,0.16736 -0.0437,0.0669 -0.0744,0.14133 -0.0883,0.21943 -1.77587,9.14902 -8.93517,14.96944 -17.96332,14.80208 -8.93517,-0.15806 -15.9457,-8.24714 -16.28972,-16.86618 -0.11808,-2.84512 -0.19525,-6.85898 -0.23244,-12.04064 -0.0307,-5.16399 0.12738,-8.23783 0.47419,-9.2234 1.44115,-3.97945 4.76976,-5.13238 9.00955,-5.09519 0.61365,0.006 1.04414,-0.0158 1.29239,-0.0651 0.14133,-0.0279 0.26963,-0.10414 0.36075,-0.21385 0.0921,-0.11064 0.14133,-0.24825 0.14133,-0.39051 v -9.80916 c 9.3e-4,-0.0567 -0.0112,-0.1125 -0.0344,-0.16457 -0.0223,-0.0521 -0.0567,-0.0985 -0.0986,-0.13574 -0.0418,-0.0381 -0.0921,-0.0669 -0.14597,-0.0837 -0.0539,-0.0167 -0.11065,-0.0223 -0.16736,-0.0158 -7.31457,0.8368 -12.93322,1.44395 -16.85689,1.82237 -5.4578,0.53927 -12.9146198,0.83679 -17.3961498,-2.67777 -3.17055005,-2.48251 -2.90091005,-6.95474 0.26963,-9.13973 2.61547,-1.79819 5.69676,-2.72797 9.2420098,-2.78933 8.29361,-0.13947 18.11208,1.59922 24.53684,2.20357 0.13668,0.0121 0.27336,-0.0251 0.384,-0.10506 0.11158,-0.0809 0.18968,-0.19897 0.22036,-0.33193 0.007,-0.0316 0.093,-0.89259 0.26034,-2.58479 0.27893,-2.75213 1.50624,-4.51871 3.68192,-5.2997301 5.77393,-2.08269991 8.3866,2.7149601 8.26574,7.6892601 -0.002,0.0818 0.0139,0.16272 0.0465,0.23803 0.0325,0.0753 0.0818,0.14318 0.1441,0.19804 0.0614,0.0549 0.13482,0.0958 0.21385,0.11994 0.08,0.0242 0.16364,0.0307 0.24639,0.0205 7.07283,-1.04786 13.61197,-1.7452 19.61833,-2.09201 4.26769,-0.25104 12.44045,-0.0837 15.35994,3.88648 2.12641,2.88789 1.69499,5.64655 -1.29238,8.27503 -3.07757,2.70566 -10.74825,2.91021 -15.25767,2.57549 -5.39271,-0.4091 -11.55064,-1.07575 -18.4747,-1.99902 -0.0679,-0.009 -0.13668,-0.004 -0.2027,0.0158 -0.066,0.0195 -0.12645,0.0521 -0.17851,0.0976 -0.0521,0.0446 -0.0939,0.0995 -0.12273,0.16178 -0.0288,0.0623 -0.0437,0.13017 -0.0446,0.19897 v 9.58602 c 0,0.16922 0.0642,0.33286 0.17943,0.45745 0.1153,0.12459 0.27429,0.1999 0.44351,0.21199 1.45975,0.11157 3.57965,-0.0186 4.82555,0.36261 3.91158,1.17152 5.81391,4.02873 5.70884,8.57256 -0.003,0.0567 0.008,0.11251 0.0307,0.16457 0.0223,0.0521 0.0567,0.0986 0.0995,0.13481 0.0428,0.0372 0.0939,0.0632 0.14877,0.0772 0.0549,0.0139 0.11157,0.0158 0.16736,0.005 3.19844,-0.64525 5.52289,-1.17523 6.97333,-1.58991 10.116,-2.91393 18.95168,-5.28765 26.50799,-7.12211 10.741736,-2.60989 21.992056,-3.91437 33.750966,-3.91437 11.75891,0 23.00923,1.30448 33.75096,3.91437 7.55631,1.83446 16.39199,4.20818 26.50799,7.12211 1.45044,0.41468 3.77489,0.94466 6.97333,1.58991 0.0558,0.0112 0.1125,0.009 0.16736,-0.005 0.0549,-0.0139 0.106,-0.04 0.14877,-0.0772 0.0437,-0.0363 0.0772,-0.0828 0.10041,-0.13481 0.0223,-0.0521 0.0325,-0.10785 0.0298,-0.16457 -0.10507,-4.54383 1.79726,-7.40104 5.70884,-8.57256 1.2459,-0.39051 3.3658,-0.26034 4.82555,-0.37191 0.16922,-0.0121 0.32821,-0.0874 0.44351,-0.21199 0.11622,-0.12459 0.18036,-0.28823 0.17943,-0.45745 v -9.58601 c -9.3e-4,-0.0688 -0.0158,-0.13668 -0.0446,-0.19898 -0.0288,-0.0623 -0.0707,-0.11715 -0.12273,-0.16178 -0.0521,-0.0456 -0.1125,-0.0781 -0.17851,-0.0976 -0.0651,-0.0195 -0.13482,-0.0251 -0.2027,-0.0158 -6.92406,0.92978 -13.08199,1.59922 -18.4747,2.00832 -4.50942,0.33472 -12.1801,0.13017 -15.25767,-2.57549 -2.98737,-2.62848 -3.41879,-5.38714 -1.29238,-8.27503 2.91949,-3.97016 11.09225,-4.13752 15.35994,-3.88648 6.00636,0.34681 12.5455,1.04136 19.61833,2.08271 0.0827,0.0102 0.16643,0.004 0.24639,-0.0205 0.079,-0.0242 0.15248,-0.0651 0.21478,-0.11994 0.0614,-0.0549 0.11063,-0.12273 0.14317,-0.19804 0.0325,-0.0753 0.0493,-0.1562 0.0465,-0.23802 -0.12086,-4.97431 2.49181,-9.77197001 8.26574,-7.6892701 2.17568,0.7810201 3.40299,2.5476001 3.68192,5.2997301 0.16736,1.6922 0.25383,2.55318 0.26034,2.58479 0.0307,0.13296 0.10878,0.25104 0.22036,0.33193 0.11064,0.08 0.24732,0.11715 0.384,0.10507 6.42476,-0.60436 16.24323,-2.34305 24.53684,-2.20358 3.54525,0.0614 6.62654,0.99114 9.24201,2.78934 3.17054,2.18498 3.44018,6.65721 0.26963,9.13972 -4.48153,3.51456 -11.93835,3.21704 -17.39615,2.67777 -3.92367,-0.37842 -9.54232,-0.98557 -16.85689,-1.82237 -0.0558,-0.007 -0.11343,-9.3e-4 -0.16736,0.0158 -0.0539,0.0167 -0.1032,0.0456 -0.14597,0.0837 -0.0418,0.0372 -0.0753,0.0837 -0.0986,0.13575 -0.0232,0.0521 -0.0344,0.10785 -0.0344,0.16457 v 9.80915 c 0,0.14226 0.0502,0.27987 0.14133,0.39051 0.092,0.10972 0.21942,0.18596 0.36075,0.21385 0.24825,0.0493 0.67874,0.0707 1.29239,0.0651 4.23979,-0.0372 7.5684,1.11573 9.00955,5.09518 0.34681,0.98557 0.50487,4.05941 0.47419,9.2234 -0.0372,5.18166 -0.11436,9.19552 -0.23244,12.04064 -0.34402,8.61904 -7.35455,16.70812 -16.28972,16.86618 -9.02815,0.16736 -16.18745,-5.64376 -17.96332,-14.79278 -0.014,-0.0781 -0.0437,-0.15249 -0.0883,-0.21943 -0.0437,-0.066 -0.10042,-0.12273 -0.16736,-0.16736 -0.067,-0.0437 -0.14133,-0.0744 -0.22036,-0.0893 -0.079,-0.0158 -0.16085,-0.0149 -0.23988,0.002 -7.35176,1.53693 -13.97178,3.12406 -19.86007,4.76047 -2.26216,0.62574 -4.19051,1.73869 -5.78322,3.33791 -0.04,0.0409 -0.0707,0.0911 -0.0902,0.14504 -0.0186,0.0549 -0.026,0.11251 -0.0205,0.17015 0.005,0.0567 0.0223,0.1125 0.0511,0.16271 0.0288,0.0502 0.0688,0.093 0.1153,0.12645 23.94179,16.76391 36.62397,44.136583 37.3306,73.006213 0.0623,2.52249 -0.26312,4.27327 -0.97626,5.25324 -3.34721,4.59311 -9.56743,3.11476 -11.84539,-1.75727 -0.15899,-0.331 -0.24825,-0.69547 -0.26034,-1.06924 -0.10506,-3.39742 -0.26033,-6.31041 -0.46489,-8.73993 -1.90883,-22.60663 -11.54784,-40.926063 -28.9161,-54.959213 -0.0809,-0.0651 -0.17573,-0.11157 -0.27708,-0.13481 -0.10134,-0.0232 -0.20548,-0.0232 -0.30682,0 -0.10042,0.0232 -0.19433,0.0697 -0.27336,0.13481 -0.079,0.0651 -0.14226,0.14784 -0.1841,0.24175 -2.64987,5.96918 -8.12626,7.69857 -14.2442,7.82874 -0.12366,0.002 -0.24546,0.0307 -0.35704,0.0846 -0.11064,0.0539 -0.2092,0.13109 -0.28823,0.22686 -0.079,0.0948 -0.13574,0.20641 -0.16736,0.32635 -0.0316,0.11902 -0.0363,0.24454 -0.0149,0.36634 1.09714,6.37827 -3.34721,6.57353 -8.14487,6.06215 -0.0716,-0.008 -0.14411,-9.3e-4 -0.21292,0.0214 -0.0688,0.0223 -0.13203,0.0586 -0.18502,0.10693 -0.0539,0.0483 -0.0967,0.10785 -0.12552,0.17294 -0.0288,0.066 -0.0437,0.1376 -0.0437,0.21013 v 12.152213 c 0,0.12087 0.0484,0.23616 0.13388,0.3217 0.0855,0.0855 0.20084,0.13389 0.32171,0.13389 l 18.63276,0.0465 c 0.0679,0 0.13947,0.007 0.21385,0.0186 4.28349,0.86098 7.35176,3.05525 9.20481,6.58283 0.92978,1.76658 1.36678,4.64239 1.31099,8.62835 -0.0995,7.52469 -0.10506,16.49055 -0.0186,26.89849 0.0437,4.98361 -0.27242,8.25271 -0.94837,9.80916 -1.2896,2.94368 -3.69773,5.18444 -7.22438,6.7223 -0.99208,0.43327 -3.20495,0.64712 -6.63863,0.64154 -9.96071,0 -18.81591,0 -26.56376,0 z m 32.21682,-45.32669 c 0,-0.63876 -0.12552,-1.27101 -0.37005,-1.86142 -0.24453,-0.58948 -0.6025,-1.12596 -1.05437,-1.57691 -0.45094,-0.45187 -0.98743,-0.80983 -1.57691,-1.05437 -0.59041,-0.24453 -1.22265,-0.37005 -1.86141,-0.37005 -1.2896,0 -2.5262,0.51231 -3.43832,1.42442 -0.91211,0.91119 -1.42442,2.14872 -1.42442,3.43833 0,1.2896 0.51231,2.52621 1.42442,3.43832 0.91212,0.91211 2.14872,1.42442 3.43832,1.42442 0.63876,0 1.271,-0.12552 1.86141,-0.37005 0.58948,-0.24453 1.12597,-0.6025 1.57691,-1.05437 0.45187,-0.45187 0.80984,-0.98743 1.05437,-1.57784 0.24453,-0.58948 0.37005,-1.22173 0.37005,-1.86048 z m -13.57476,15.70395 c 0,-4.93898 -1.96184,-9.67621 -5.45502,-13.16938 -3.49225,-3.49225 -8.22946,-5.45408 -13.16845,-5.45408 -4.93898,0 -9.6762,1.96183 -13.16845,5.45408 -3.49318,3.49317 -5.45501,8.2304 -5.45501,13.16938 0,4.93899 1.96183,9.6762 5.45501,13.16845 3.49225,3.49318 8.22947,5.45502 13.16845,5.45502 4.93899,0 9.6762,-1.96184 13.16845,-5.45502 3.49318,-3.49225 5.45502,-8.22946 5.45502,-13.16845 z"
     id="path4"
     style="fill:var(--marker-fill,black);fill-opacity:1;stroke:var(--marker-stroke,black);stroke-width:1.5;stroke-dasharray:none;stroke-opacity:1" />
</svg>
